<?xml version="1.0" encoding="UTF-8"?>
<svg width="212" height="214.18" version="1.1" viewBox="0 0 56.092 56.667" xmlns="http://www.w3.org/2000/svg">
 <g transform="translate(41.694 23.783)">
  <g transform="matrix(.2 0 0 .2 -32.085 -17.757)">
   <g>
    <path d="m126.02 228.5 5.6883-11.652c-13.186 5.1049-27.523 7.9085-42.523 7.9085-65.033 0-117.65-52.613-117.65-117.65 0-65.033 52.613-117.66 117.65-117.66 53.203 0 98.093 35.225 112.67 83.646l5.6915-11.659c-18.354-47.468-64.454-81.182-118.36-81.182-70.002 0-126.84 56.852-126.84 126.85 0 70.002 56.839 126.84 126.84 126.84 12.809 0 25.174-1.912 36.835-5.4508z" color="#000000" fill="#2a7fff" stroke-width="4.9032" style="-inkscape-stroke:none"/>
    <path d="m130.15 220.05 3.1577-6.477c-13.584 5.6215-28.48 8.7288-44.116 8.7288-63.711 0-115.19-51.481-115.19-115.19 0-63.711 51.484-115.2 115.19-115.2 53.063 0 97.643 35.724 111.06 84.473l3.1672-6.4865c-15.661-48.126-60.869-82.896-114.23-82.896-66.356 0-120.1 53.758-120.1 120.11 0 66.355 53.746 120.1 120.1 120.1 14.385 0 28.177-2.5284 40.958-7.161z" color="#000000" stroke-width="6.1289" style="-inkscape-stroke:none"/>
    <path d="m124.56 231.49 2.936-6.024c-12.071 3.9068-24.943 6.0272-38.311 6.0272-68.674 0-124.39-55.712-124.39-124.39 0-68.674 55.712-124.4 124.39-124.4 53.692 0 99.465 34.063 116.88 81.746l2.9234-5.9924c-19.251-47.271-65.679-80.66-119.81-80.66-71.329 0-129.3 57.976-129.3 129.3 0 71.329 57.967 129.3 129.3 129.3 12.262 0 24.129-1.713 35.375-4.9124z" color="#000000" stroke-width="6.1289" style="-inkscape-stroke:none"/>
   </g>
   <g transform="matrix(6.1289 0 0 6.1289 -425.83 -514.4)" fill="#2a7fff" stroke-width="1.5" aria-label="w">
    <path d="m92.897 101.8 2.8443 6.6239 9.5627-19.631h-6.5112z" color="#000000" style="-inkscape-stroke:none"/>
    <path d="m98.926 88.293-6.5767 13.502c1.1222 2.6095 2.2424 5.22 3.3633 7.8301l10.391-21.332zm0.61237 1h4.9653l-8.7344 17.93-2.3262-5.416z" color="#000000" fill="#000" style="-inkscape-stroke:none"/>
    <path d="m84.066 88.611-7.1654 16.383 2.9846 5.9877 4.1808-9.2195 7.0022 16.201 2.9771-6.1123c-8.0073-18.648 1.49e-4 4.4e-4 -9.9792-23.24z" color="#000000" style="-inkscape-stroke:none"/>
    <path d="m84.07 87.354-0.46289 1.0566-7.2598 16.598 3.3027 7.2112 4.4044-9.2229 6.9863 16.164 3.5527-7.2969-0.08984-0.21094c-8.0073-18.648 8.58e-4 2e-3 -9.9785-23.238zm-0.0098 2.5156c7.9487 18.511 2.138 4.9722 9.4355 21.967l-2.4004 4.9297-7.0195-16.238-4.3762 9.3632-2.2488-4.9101z" color="#000000" fill="#000" style="-inkscape-stroke:none"/>
    <path d="m70.371 96.731-5.6702 0.02014 12.03 25.028 2.9002-4.8283z" color="#000000" style="-inkscape-stroke:none"/>
    <path d="m70.369 96.23-6.4629 0.02344 12.853 27.694 3.418-7.0045-9.4863-20.713zm-0.31836 1.002 9.0332 19.725-2.353 4.8219-11.235-24.531z" color="#000000" fill="#000" style="-inkscape-stroke:none"/>
   </g>
  </g>
 </g>
</svg>
