<?xml version="1.0" encoding="UTF-8"?>
<svg width="56.917mm" height="41.073mm" version="1.1" viewBox="0 0 56.917 41.073" xmlns="http://www.w3.org/2000/svg">
 <g transform="translate(-10.509 -37.036)">
  <g transform="matrix(.30197 0 0 .30197 8.7319 10.264)">
   <path d="m40.146 216.62c-11.588-0.99585-18.734-5.0626-22.294-12.688-3.8686-8.2852-5.3625-21.251-5.3426-46.371 0.02094-26.443 1.2384-38.391 4.7434-46.551 2.5156-5.857 5.4365-9.0356 10.442-11.363 5.8842-2.7364 7.889-2.9427 38.91-4.0029 13.941-0.47646 53.936-0.48211 67.733-0.01 24.535 0.8403 30.466 1.2386 33.867 2.2748 6.9563 2.1194 12.273 6.6637 14.655 12.525 1.3668 3.3638 2.5507 7.798 3.1343 11.74 2.1097 14.248 2.3596 45.443 0.52095 65.021-1.5768 16.79-7.3417 25.452-18.914 28.416-2.6733 0.68492-7.8612 1.1517-19.858 1.7866-39.302-0.51819-70.036 2.2373-107.6-0.77781z" fill="#dd2b27" stroke-width=".35278"/>
   <path d="m82.044 125.83 50.883 28.328-50.883 27.919z" fill="#fff" stroke-width="0"/>
  </g>
 </g>
</svg>
